<svg xmlns="http://www.w3.org/2000/svg" width="32" height="32"><circle cx="16" cy="16" r="16" fill="#0085ff"/><path fill="#fff" d="M10.335 8.356c2.293 1.727 4.759 5.229 5.665 7.108v4.963c0-.106-.041.014-.128.271-.473 1.393-2.318 6.827-6.538 2.482-2.222-2.287-1.193-4.575 2.852-5.266-2.314.395-4.916-.258-5.629-2.817C6.35 14.361 6 9.826 6 9.214c0-3.068 2.681-2.104 4.335-.858zm11.329 0c-2.293 1.727-4.759 5.229-5.665 7.108v4.963c0-.106.041.014.128.271.473 1.393 2.318 6.827 6.538 2.482 2.222-2.288 1.193-4.575-2.852-5.266 2.314.395 4.916-.258 5.629-2.817.206-.736.556-5.271.556-5.884 0-3.068-2.681-2.104-4.335-.858z"/></svg>
