<?xml version="1.0" encoding="UTF-8" standalone="no"?>
<svg
   width="32"
   height="32"
   fill="none"
   version="1.1"
   id="svg6"
   sodipodi:docname="discord.svg"
   inkscape:version="1.2.2 (b0a8486541, 2022-12-01)"
   xmlns:inkscape="http://www.inkscape.org/namespaces/inkscape"
   xmlns:sodipodi="http://sodipodi.sourceforge.net/DTD/sodipodi-0.dtd"
   xmlns="http://www.w3.org/2000/svg"
   xmlns:svg="http://www.w3.org/2000/svg">
  <defs
     id="defs10" />
  <sodipodi:namedview
     id="namedview8"
     pagecolor="#ffffff"
     bordercolor="#000000"
     borderopacity="0.25"
     inkscape:showpageshadow="2"
     inkscape:pageopacity="0.0"
     inkscape:pagecheckerboard="0"
     inkscape:deskcolor="#d1d1d1"
     showgrid="false"
     inkscape:zoom="11.166667"
     inkscape:cx="24"
     inkscape:cy="24"
     inkscape:window-width="1366"
     inkscape:window-height="715"
     inkscape:window-x="0"
     inkscape:window-y="29"
     inkscape:window-maximized="1"
     inkscape:current-layer="svg6" />
  <path
     d="M 16,32 C 24.836667,32 32,24.836667 32,16 32,7.1633333 24.836667,0 16,0 7.1633333,0 0,7.1633333 0,16 0,24.836667 7.1633333,32 16,32 Z"
     fill="#5865f2"
     id="path2"
     style="stroke-width:0.666667" />
  <path
     d="M 22.93326,9.641255 A 16.492062,16.492062 0 0 0 18.862027,8.378459 c -0.02571,-0.005 -0.05214,0.0071 -0.06571,0.03071 -0.175706,0.312842 -0.370696,0.720679 -0.507118,1.041378 -1.537069,-0.229989 -3.066995,-0.229989 -4.572637,0 C 13.58014,9.122706 13.378007,8.722011 13.201587,8.409169 a 0.06428261,0.06428261 0 0 0 -0.06571,-0.03071 c -1.428503,0.245703 -2.79558,0.67711 -4.0712321,1.262796 -0.01071,0.005 -0.02071,0.01286 -0.02714,0.02286 -2.592732,3.874099 -3.303412,7.652488 -2.954857,11.383737 0.0014,0.01857 0.01214,0.03571 0.02571,0.04714 a 16.584914,16.584914 0 0 0 4.9940451,2.524878 c 0.02571,0.0079 0.05357,-0.0014 0.07,-0.02286 0.384982,-0.525689 0.727822,-1.079234 1.021379,-1.662063 0.01714,-0.03428 7.15e-4,-0.07428 -0.035,-0.08785 -0.544259,-0.206418 -1.062092,-0.457835 -1.559925,-0.743535 a 0.06428261,0.06428261 0 0 1 -0.0064,-0.106424 c 0.104995,-0.07857 0.20999,-0.159992 0.309985,-0.242845 0.01786,-0.015 0.04357,-0.01857 0.065,-0.0086 3.273414,1.494213 6.816814,1.494213 10.051658,0 0.02143,-0.01 0.04643,-0.0071 0.06571,0.0079 0.09999,0.08285 0.20499,0.164992 0.3107,0.243559 a 0.06428261,0.06428261 0 0 1 -0.0057,0.106424 10.249506,10.249506 0 0 1 -1.560639,0.742821 c -0.03571,0.01357 -0.05143,0.055 -0.03357,0.08857 0.300699,0.581401 0.64354,1.13566 1.020665,1.661349 0.01571,0.02214 0.04428,0.03143 0.07,0.02357 1.634207,-0.50569 3.29127,-1.26851 5.001902,-2.524878 a 0.06428261,0.06428261 0 0 0 0.02571,-0.04571 c 0.417123,-4.314078 -0.698538,-8.061754 -2.957,-11.383737 -0.0057,-0.01143 -0.015,-0.01928 -0.02571,-0.02357 z m -10.248078,9.135274 c -0.985666,0 -1.79777,-0.904956 -1.79777,-2.015617 0,-1.110661 0.79639,-2.015617 1.79777,-2.015617 1.009237,0 1.813484,0.912813 1.797771,2.015617 0,1.111375 -0.79639,2.015617 -1.797771,2.015617 z m 6.646108,0 c -0.985666,0 -1.79777,-0.904956 -1.79777,-2.015617 0,-1.110661 0.79639,-2.015617 1.79777,-2.015617 1.009237,0 1.813484,0.912813 1.797771,2.015617 0,1.111375 -0.788534,2.015617 -1.797771,2.015617 z"
     fill="#ffffff"
     id="path4"
     style="stroke-width:0.714251" />
</svg>
