<svg xmlns="http://www.w3.org/2000/svg" width="48" height="48" fill="none"><path d="M24 48c13.255 0 24-10.745 24-24S37.255 0 24 0 0 10.745 0 24s10.745 24 24 24z" fill="#5865f2"/><path d="M33.705 15.098a23.09 23.09 0 0 0-5.7-1.768c-.036-.007-.073.01-.092.043-.246.438-.519 1.009-.71 1.458-2.152-.322-4.294-.322-6.402 0-.191-.459-.474-1.02-.721-1.458a.09.09 0 0 0-.092-.043c-2 .344-3.914.948-5.7 1.768-.015.007-.029.018-.038.032-3.63 5.424-4.625 10.714-4.137 15.938.002.026.017.05.036.066a23.22 23.22 0 0 0 6.992 3.535c.036.011.075-.002.098-.032.539-.736 1.019-1.511 1.43-2.327.024-.048.001-.104-.049-.123-.762-.289-1.487-.641-2.184-1.041a.09.09 0 0 1-.009-.149c.147-.11.294-.224.434-.34.025-.021.061-.026.091-.012 4.583 2.092 9.544 2.092 14.073 0 .03-.014.065-.01.092.011.14.116.287.231.435.341a.09.09 0 0 1-.008.149 14.35 14.35 0 0 1-2.185 1.04c-.05.019-.072.077-.047.124.421.814.901 1.59 1.429 2.326.022.031.062.044.098.033 2.288-.708 4.608-1.776 7.003-3.535a.09.09 0 0 0 .036-.064c.584-6.04-.978-11.287-4.14-15.938-.008-.016-.021-.027-.036-.033zM19.357 27.888c-1.38 0-2.517-1.267-2.517-2.822s1.115-2.822 2.517-2.822c1.413 0 2.539 1.278 2.517 2.822 0 1.556-1.115 2.822-2.517 2.822zm9.305 0c-1.38 0-2.517-1.267-2.517-2.822s1.115-2.822 2.517-2.822c1.413 0 2.539 1.278 2.517 2.822 0 1.556-1.104 2.822-2.517 2.822z" fill="#fff"/></svg>
