<?xml version="1.0" encoding="UTF-8" standalone="no"?>
<svg
   viewBox="0 0 32 32"
   version="1.1"
   id="svg6"
   sodipodi:docname="email.svg"
   width="32"
   height="32"
   inkscape:version="1.2.2 (b0a8486541, 2022-12-01)"
   xmlns:inkscape="http://www.inkscape.org/namespaces/inkscape"
   xmlns:sodipodi="http://sodipodi.sourceforge.net/DTD/sodipodi-0.dtd"
   xmlns="http://www.w3.org/2000/svg"
   xmlns:svg="http://www.w3.org/2000/svg">
  <defs
     id="defs10" />
  <sodipodi:namedview
     id="namedview8"
     pagecolor="#ffffff"
     bordercolor="#000000"
     borderopacity="0.25"
     inkscape:showpageshadow="2"
     inkscape:pageopacity="0.0"
     inkscape:pagecheckerboard="0"
     inkscape:deskcolor="#d1d1d1"
     showgrid="false"
     inkscape:zoom="4.1875"
     inkscape:cx="64"
     inkscape:cy="64"
     inkscape:window-width="1366"
     inkscape:window-height="715"
     inkscape:window-x="0"
     inkscape:window-y="29"
     inkscape:window-maximized="1"
     inkscape:current-layer="svg6" />
  <circle
     cx="16"
     cy="16"
     fill="#4b5f83"
     r="16"
     id="circle2"
     style="stroke-width:0.25" />
  <path
     d="M 16.09901,25.785479 C 10.356436,25.785479 6,21.759076 6,16.082508 6,10.372937 10.422442,6.2145212 16.19802,6.2145212 21.577558,6.2145212 26,9.9108908 26,15.158416 c 0,2.574257 -1.056106,5.808581 -4.620462,5.808581 -1.353135,0 -2.376238,-0.49505 -2.871287,-1.452146 -0.726073,0.89109 -1.815182,1.386139 -3.234324,1.386139 -2.640264,0 -4.719472,-1.881188 -4.719472,-4.884488 0,-3.069307 2.112212,-4.917492 4.719472,-4.917492 1.188119,0 2.178218,0.39604 2.904291,1.089109 V 11.29703 h 2.640264 v 6.60066 c 0,0.726072 0.561056,1.089109 1.188119,1.089109 1.320132,0 1.914191,-2.013202 1.914191,-3.79538 0,-4.290429 -3.465346,-7.1287128 -7.755776,-7.1287128 -4.620461,0 -8.118811,3.3663368 -8.118811,7.9207918 0,4.554456 3.49835,7.788779 7.986798,7.788779 2.013202,0 3.960396,-0.627062 5.709571,-1.980198 l 1.056106,1.683169 c -1.716172,1.485148 -4.125413,2.310231 -6.69967,2.310231 m 2.079208,-9.735974 c 0,-1.485149 -1.089109,-2.409241 -2.277228,-2.409241 -1.155115,0 -2.244224,0.891089 -2.244224,2.409241 0,1.518152 1.089109,2.409241 2.244224,2.409241 1.188119,0.033 2.277228,-0.924093 2.277228,-2.409241 z"
     fill="#ffffff"
     id="path4"
     style="stroke-width:0.330033" />
</svg>
