<?xml version="1.0" encoding="UTF-8" standalone="no"?>
<!-- Created with Inkscape (http://www.inkscape.org/) -->

<svg
   width="16"
   height="16"
   viewBox="0 0 4.2333332 4.2333335"
   version="1.1"
   id="svg810"
   inkscape:version="1.1 (c4e8f9ed74, 2021-05-24)"
   sodipodi:docname="github.svg"
   xmlns:inkscape="http://www.inkscape.org/namespaces/inkscape"
   xmlns:sodipodi="http://sodipodi.sourceforge.net/DTD/sodipodi-0.dtd"
   xmlns="http://www.w3.org/2000/svg"
   xmlns:svg="http://www.w3.org/2000/svg">
  <sodipodi:namedview
     id="namedview812"
     pagecolor="#ffffff"
     bordercolor="#666666"
     borderopacity="1.0"
     inkscape:pageshadow="2"
     inkscape:pageopacity="0.0"
     inkscape:pagecheckerboard="0"
     inkscape:document-units="mm"
     showgrid="false"
     units="px"
     inkscape:zoom="14.538721"
     inkscape:cx="6.8437934"
     inkscape:cy="10.523622"
     inkscape:window-width="1366"
     inkscape:window-height="687"
     inkscape:window-x="0"
     inkscape:window-y="0"
     inkscape:window-maximized="1"
     inkscape:current-layer="layer1" />
  <defs
     id="defs807" />
  <g
     inkscape:label="Camada 1"
     inkscape:groupmode="layer"
     id="layer1">
    <path
       d="M 2.116473,0.05224396 C 0.94765717,0.05224396 3.6666667e-7,0.99990076 3.6666667e-7,2.1689765 3.6666667e-7,3.104159 0.60643317,3.8974463 1.4475387,4.1774683 c 0.1059016,0.019361 0.144494,-0.045999 0.144494,-0.1021333 0,-0.050157 -0.00182,-0.1833462 -0.00286,-0.3599355 C 1.0004118,3.8432611 0.87618857,3.4316093 0.87618857,3.4316093 0.77990257,3.187061 0.64112597,3.1219608 0.64112597,3.1219608 c -0.1921821,-0.13124 0.014553,-0.1286412 0.014553,-0.1286412 0.2124529,0.014943 0.3242019,0.2181703 0.3242019,0.2181703 C 1.1686846,3.5349121 1.4753444,3.4414848 1.5959293,3.3872995 1.6151603,3.250602 1.6697353,3.1573047 1.7302879,3.1044188 1.2602927,3.0510132 0.76612857,2.8693563 0.76612857,2.058267 c 0,-0.2310344 0.082512,-0.419968 0.2179104,-0.5679703 -0.02183,-0.053536 -0.094467,-0.2687172 0.020661,-0.56017404 0,0 0.1777587,-0.056914 0.5821339,0.21700084 0.1687928,-0.047038 0.34993,-0.070428 0.5298978,-0.071207 0.1797078,7.809e-4 0.360845,0.024169 0.5298977,0.071207 0.4041153,-0.27391484 0.5814842,-0.21700084 0.5814842,-0.21700084 0.1155172,0.29145684 0.04288,0.50663844 0.02105,0.56017404 0.135658,0.1480023 0.2176505,0.3369359 0.2176505,0.5679703 0,0.8131683 -0.4949437,0.9920965 -0.9664982,1.0444626 0.076015,0.06536 0.1437143,0.1945211 0.1437143,0.3920308 0,0.2828807 -0.0026,0.5111863 -0.0026,0.5805746 0,0.056654 0.038073,0.122534 0.1455335,0.1018735 0.8404558,-0.2805418 1.4463689,-1.0733094 1.4463689,-2.008232 0,-1.16907574 -0.9477868,-2.11673254 -2.1168624,-2.11673254"
       style="fill:#ffffff;fill-opacity:1;fill-rule:evenodd;stroke:none;stroke-width:0.129941"
       id="path196" />
  </g>
</svg>
