<?xml version="1.0" encoding="UTF-8" standalone="no"?>
<svg
   viewBox="0 0 32 32"
   version="1.1"
   id="svg6"
   sodipodi:docname="github.svg"
   width="32"
   height="32"
   inkscape:version="1.2.2 (b0a8486541, 2022-12-01)"
   xmlns:inkscape="http://www.inkscape.org/namespaces/inkscape"
   xmlns:sodipodi="http://sodipodi.sourceforge.net/DTD/sodipodi-0.dtd"
   xmlns="http://www.w3.org/2000/svg"
   xmlns:svg="http://www.w3.org/2000/svg">
  <defs
     id="defs10" />
  <sodipodi:namedview
     id="namedview8"
     pagecolor="#ffffff"
     bordercolor="#000000"
     borderopacity="0.25"
     inkscape:showpageshadow="2"
     inkscape:pageopacity="0.0"
     inkscape:pagecheckerboard="0"
     inkscape:deskcolor="#d1d1d1"
     showgrid="false"
     inkscape:zoom="8.375"
     inkscape:cx="11.462687"
     inkscape:cy="19.343284"
     inkscape:window-width="1366"
     inkscape:window-height="699"
     inkscape:window-x="0"
     inkscape:window-y="0"
     inkscape:window-maximized="1"
     inkscape:current-layer="svg6" />
  <circle
     cx="16"
     cy="16"
     r="16"
     fill="#181717"
     id="circle2"
     style="stroke-width:0.03125;fill:#24292f;fill-opacity:1" />
  <path
     d="m 15.99999,6.2471823 c -5.52519,0 -10,4.4787197 -10,9.9999997 0,4.42015 2.86607,8.16868 6.83717,9.48848 0.49981,0.0937 0.68333,-0.21476 0.68333,-0.48028 l -0.0117,-1.69856 c -2.78017,0.60524 -3.36978,-1.34322 -3.36978,-1.34322 -0.45685,-1.1558 -1.11285,-1.46427 -1.11285,-1.46427 -0.90589,-0.62085 0.0703,-0.60914 0.0703,-0.60914 1.00351,0.0703 1.53065,1.03085 1.53065,1.03085 0.89028,1.53065 2.34283,1.08942 2.91292,0.8317 0.0898,-0.64818 0.34752,-1.08941 0.63257,-1.33932 -2.22179,-0.2499 -4.55681,-1.10894 -4.55681,-4.94338 0,-1.09332 0.38656,-1.9836 1.03084,-2.68254 -0.11323,-0.25381 -0.44904,-1.26904 0.0859,-2.64741 0,0 0.83951,-0.26942 2.74892,1.02695 0.80047,-0.22257 1.6517,-0.33191 2.49903,-0.33581 0.85123,0.004 1.69855,0.11324 2.49902,0.33581 1.9016,-1.29247 2.73721,-1.02695 2.73721,-1.02695 0.53885,1.37837 0.19914,2.3936 0.10153,2.64741 0.63647,0.69894 1.02694,1.59312 1.02694,2.68254 0,3.84225 -2.33893,4.68958 -4.56463,4.93557 0.35143,0.30067 0.67552,0.91371 0.67552,1.85084 l -0.0117,2.73722 c 0,0.26161 0.17571,0.57399 0.68723,0.47637 4.00625,-1.30808 6.86841,-5.05662 6.86841,-9.47286 0,-5.52128 -4.47872,-9.9999997 -10,-9.9999997"
     fill="#ffffff"
     id="path4"
     style="stroke-width:0.0390472" />
</svg>
