<?xml version="1.0" encoding="UTF-8" standalone="no"?>
<svg
   viewBox="0 0 32 32"
   version="1.1"
   id="svg6"
   sodipodi:docname="mastodon.svg"
   width="32"
   height="32"
   inkscape:version="1.2.2 (b0a8486541, 2022-12-01)"
   xmlns:inkscape="http://www.inkscape.org/namespaces/inkscape"
   xmlns:sodipodi="http://sodipodi.sourceforge.net/DTD/sodipodi-0.dtd"
   xmlns="http://www.w3.org/2000/svg"
   xmlns:svg="http://www.w3.org/2000/svg">
  <defs
     id="defs10" />
  <sodipodi:namedview
     id="namedview8"
     pagecolor="#ffffff"
     bordercolor="#000000"
     borderopacity="0.25"
     inkscape:showpageshadow="2"
     inkscape:pageopacity="0.0"
     inkscape:pagecheckerboard="0"
     inkscape:deskcolor="#d1d1d1"
     showgrid="false"
     inkscape:zoom="8.375"
     inkscape:cx="11.522388"
     inkscape:cy="19.223881"
     inkscape:window-width="1366"
     inkscape:window-height="715"
     inkscape:window-x="0"
     inkscape:window-y="29"
     inkscape:window-maximized="1"
     inkscape:current-layer="svg6" />
  <circle
     cx="16"
     cy="16"
     r="16"
     fill="#2b90d9"
     id="circle2"
     style="fill:#6364ff;fill-opacity:1;stroke-width:0.03125" />
  <path
     d="m 25.324458,12.566801 c 0,-4.3362002 -2.84392,-5.6097102 -2.84392,-5.6097102 -1.43368,-0.6602 -3.89477,-0.93365 -6.44961,-0.95709 h -0.0625 c -2.55484,0.0195 -5.01593,0.29689 -6.4496103,0.95709 0,0 -2.84392,1.26961 -2.84392,5.6097102 l 0.0117,3.44161 c 0.10157,4.24245 0.77739,8.42239 4.6995003,9.46151 1.8087,0.47659 3.35958,0.57816 4.61356,0.51175 2.26967,-0.12501 3.54318,-0.80864 3.54318,-0.80864 l -0.0742,-1.64463 c 0,0 -1.62119,0.51175 -3.44161,0.44924 -1.8048,-0.0625 -3.70726,-0.19532 -4.00025,-2.4103 -0.0273,-0.20704 -0.0391,-0.41408 -0.0391,-0.62113 0,0 1.76964,0.43362 4.01196,0.53519 1.37118,0.0625 2.65641,-0.082 3.96508,-0.23439 2.50406,-0.3008 4.68778,-1.84386 4.96124,-3.2541 0.43362,-2.22279 0.39846,-5.42611 0.39846,-5.42611 z m -3.35176,5.59018 h -2.08216 v -5.09796 c 0,-1.07428 -0.45315,-1.62119 -1.35555,-1.62119 -1.00006,0 -1.50009,0.64847 -1.50009,1.92589 v 2.79314 h -2.07044 v -2.79314 c 0,-1.28132 -0.50003,-1.92589 -1.50009,-1.92589 -0.9024,0 -1.35555,0.54691 -1.35555,1.62119 v 5.09796 h -2.08216 v -5.25031 c 0,-1.07429 0.27346,-1.9259 0.82427,-2.55875 0.56644,-0.6328502 1.30868,-0.9531802 2.2267,-0.9531802 1.06647,0 1.87121,0.41018 2.40639,1.2266302 l 0.51566,0.86724 0.51956,-0.86724 c 0.53519,-0.8203602 1.33993,-1.2266302 2.4064,-1.2266302 0.91802,0 1.66025,0.32423 2.22669,0.9531802 0.54691,0.62894 0.82037,1.48446 0.82037,2.55875 z"
     fill="#ffffff"
     id="path4"
     style="stroke-width:0.0390649" />
</svg>
