<svg xmlns="http://www.w3.org/2000/svg" width="103.05" height="103.05" stroke-width="0"><defs><linearGradient id="A" x1="37.15" x2="79.91" y1="1.79" y2="149.73" gradientUnits="userSpaceOnUse"><stop stop-color="#ef1970" offset="0"/><stop stop-color="#f23b5c" offset=".14"/><stop stop-color="#f77d35" offset=".45"/><stop stop-color="#fcad18" offset=".7"/><stop stop-color="#fecb07" offset=".89"/><stop stop-color="#ffd600" offset="1"/></linearGradient><clipPath id="B"><rect x="8.45" y="8.03" width="103.05" height="103.05" rx="51.52"/></clipPath></defs><rect width="103.05" height="103.05" rx="51.52" fill="url(#A)"/><g transform="translate(-8.45 -8.03)" clip-path="url(#B)"><path d="M17.12 48.17a.9.9 0 0 0 .31-1.31 1 1 0 0 0-1.32-.3 1 1 0 0 0 1 1.61zM73.24 23a.88.88 0 0 0 .3-1.32 1 1 0 0 0-1.31-.3 1 1 0 0 0-.3 1.31 1 1 0 0 0 1.31.31zm11.93 36.4a1.09 1.09 0 1 0 1.32-.81 1.13 1.13 0 0 0-1.32.81zM69.4 96.2c-.41-.2-.81.1-1 .61a.83.83 0 1 0 1-.61zm-45.89-68a.51.51 0 1 0 .2-1c-.3 0-.61.1-.61.4a.45.45 0 0 0 .41.59zm3.22 50.12c-.41.1-.71.4-.61.81a.69.69 0 0 0 .81.6c.4 0 .61-.4.61-.81a.69.69 0 0 0-.81-.61zM94 44l-.61 2.63L91 47.77l2.62.61 1.12 2.32.6-2.63L97.71 47l-2.63-.61zM59.79 26.74a1 1 0 0 0-.6 1.41 4.59 4.59 0 0 1 .3 3 1.14 1.14 0 0 0 .91 1.31h.2a1 1 0 0 0 1-.91 6.14 6.14 0 0 0-.4-4.24 1 1 0 0 0-1.41-.57zm-.5-4.35a6 6 0 0 0-1-1.52 1.11 1.11 0 0 0-1.52 0 1.09 1.09 0 0 0 0 1.52 4.6 4.6 0 0 1 .61 1 1.18 1.18 0 0 0 1.51.51 1.15 1.15 0 0 0 .4-1.51zm38.37 70.75a128 128 0 0 0-6-18.49C89.59 69.43 82.85 63 78.5 59.8a3.16 3.16 0 0 1-.31-4.8C82.44 50.9 90 43 92.45 38.87c1.6-2.92 4.75-8.46 4.89-13.26.31-3.57-.18-7.7-4.91-9.59a6.9 6.9 0 0 0-7.14.92c-3 2.06-4 7.7-6.07 13.32-2.44 6.48-6.28 7.3-8.31 7.3s-.7-2.14-5.35-15.59-17-11-26.29-5.44c-11.83 7.07-6.58 22.14-3.64 31.85C34 50 27.74 51.21 22.08 54.24c-3.52 1.89-6.53 3.11-9.47 5.47-4.09 3.29-5.86 7-4.44 12.06a7.22 7.22 0 0 0 3.58 4.09c3.34 1.52 8.26-.69 15.79-6.35A46.19 46.19 0 0 1 39.47 64s4.55 7 8.8 15.27-4.56 11-5.47 11-14.8-1.35-11.62 10.38 19.92 7.48 28.51 1.82 6.47-24.16 6.47-24.16C74.55 77 77.18 85.89 78 90.44s-1 12.44 7.48 12.64a13.28 13.28 0 0 0 3.54-.51c4.58-1.06 7.23-3.36 8.32-5.81a5.84 5.84 0 0 0 .32-3.62zm-42.32-55c-8.59 3.24-12.74-1-13.24-8.79-.61-8.8 7.58-11 7.58-11 9.1-3 11.53 1.31 13.65 7.78s.51 8.8-7.99 12.03z" fill="#fff"/></g></svg>
