<?xml version="1.0" encoding="UTF-8" standalone="no"?>
<svg
   width="32"
   height="32"
   fill="none"
   version="1.1"
   id="svg6"
   sodipodi:docname="rss.svg"
   inkscape:version="1.2.2 (b0a8486541, 2022-12-01)"
   xmlns:inkscape="http://www.inkscape.org/namespaces/inkscape"
   xmlns:sodipodi="http://sodipodi.sourceforge.net/DTD/sodipodi-0.dtd"
   xmlns="http://www.w3.org/2000/svg"
   xmlns:svg="http://www.w3.org/2000/svg">
  <defs
     id="defs10" />
  <sodipodi:namedview
     id="namedview8"
     pagecolor="#ffffff"
     bordercolor="#000000"
     borderopacity="0.25"
     inkscape:showpageshadow="2"
     inkscape:pageopacity="0.0"
     inkscape:pagecheckerboard="0"
     inkscape:deskcolor="#d1d1d1"
     showgrid="false"
     inkscape:zoom="7.8960257"
     inkscape:cx="16.653948"
     inkscape:cy="15.704103"
     inkscape:window-width="1366"
     inkscape:window-height="715"
     inkscape:window-x="0"
     inkscape:window-y="29"
     inkscape:window-maximized="1"
     inkscape:current-layer="svg6" />
  <path
     d="M 0,16 C 0,7.1633333 7.1633333,0 16,0 24.836667,0 32,7.1633333 32,16 32,24.836667 24.836667,32 16,32 7.1633333,32 0,24.836667 0,16 Z"
     fill="#f8991d"
     id="path2"
     style="stroke-width:0.666667" />
  <path
     fill-rule="evenodd"
     d="m 25.999107,25.998865 h -3.808758 c 0,-8.927341 -7.262176,-16.190458 -16.189456,-16.190458 V 5.999622 C 17.028079,5.999622 26,14.971604 26,25.998865 Z M 6,23.141831 a 2.8570156,2.8570351 0 1 1 5.714031,0 2.8570156,2.8570351 0 1 1 -5.714031,0 z m 9.523682,2.857034 h 3.808759 c 0,-7.351507 -5.980983,-13.333424 -13.3324411,-13.333424 v 3.809677 c 5.2515511,0 9.5236821,4.272161 9.5236821,9.522854 z"
     fill="#ffffff"
     id="path4"
     style="stroke-width:0.89282" />
</svg>
