<?xml version="1.0" encoding="UTF-8" standalone="no"?>
<svg
   viewBox="0 0 32 32"
   version="1.1"
   id="svg6"
   sodipodi:docname="steam.svg"
   width="32"
   height="32"
   inkscape:version="1.2.2 (b0a8486541, 2022-12-01)"
   xmlns:inkscape="http://www.inkscape.org/namespaces/inkscape"
   xmlns:sodipodi="http://sodipodi.sourceforge.net/DTD/sodipodi-0.dtd"
   xmlns="http://www.w3.org/2000/svg"
   xmlns:svg="http://www.w3.org/2000/svg">
  <defs
     id="defs10" />
  <sodipodi:namedview
     id="namedview8"
     pagecolor="#ffffff"
     bordercolor="#000000"
     borderopacity="0.25"
     inkscape:showpageshadow="2"
     inkscape:pageopacity="0.0"
     inkscape:pagecheckerboard="0"
     inkscape:deskcolor="#d1d1d1"
     showgrid="false"
     inkscape:zoom="11.844039"
     inkscape:cx="16.168472"
     inkscape:cy="15.36638"
     inkscape:window-width="1366"
     inkscape:window-height="715"
     inkscape:window-x="0"
     inkscape:window-y="29"
     inkscape:window-maximized="1"
     inkscape:current-layer="svg6" />
  <circle
     cx="16"
     cy="16"
     r="16"
     id="circle2"
     style="stroke-width:0.03125" />
  <path
     d="m 15.982355,5.99996 c -5.25,0 -9.55468,4.05078 -9.96484,9.19531 l 5.35937,2.21485 c 0.45313,-0.3086 1.00391,-0.49219 1.59375,-0.49219 0.0508,0 0.10547,0.004 0.15625,0.004 l 2.38282,-3.45312 v -0.0508 c 0,-2.07813 1.6914,-3.76953 3.76953,-3.76953 2.07812,0 3.76953,1.6914 3.76953,3.77343 0,2.08204 -1.69141,3.76954 -3.76953,3.76954 h -0.0859 l -3.39844,2.42578 c 0,0.043 0.004,0.0859 0.004,0.13281 0,1.5625 -1.26172,2.82812 -2.82422,2.82812 -1.36328,0 -2.51172,-0.97656 -2.77734,-2.27343 l -3.83594,-1.58985 c 1.1875,4.20703 5.04297,7.28516 9.62109,7.28516 5.52344,0 10,-4.47656 10,-10 0,-5.52344 -4.48047,-10 -10,-10 z m -3.69922,15.17578 -1.22656,-0.50781 c 0.21875,0.45312 0.59375,0.83203 1.09375,1.04297 1.08203,0.44922 2.32813,-0.0625 2.77735,-1.14453 0.21875,-0.52344 0.21875,-1.09766 0.004,-1.625 -0.21484,-0.52344 -0.625,-0.9336 -1.14844,-1.15235 -0.51953,-0.21484 -1.07421,-0.20703 -1.5664,-0.0234 l 1.26953,0.52344 c 0.79687,0.33203 1.17578,1.25 0.83984,2.04688 -0.32812,0.79297 -1.24609,1.17187 -2.04297,0.83984 z m 9.51172,-7.75391 c 0,-1.38671 -1.1289,-2.51171 -2.51172,-2.51171 -1.38671,0 -2.51171,1.1289 -2.51171,2.51171 0,1.38672 1.125,2.51172 2.51171,2.51172 1.38282,0 2.51172,-1.125 2.51172,-2.51172 z m -4.39453,-0.004 c 0,-1.04297 0.84375,-1.88672 1.88672,-1.88672 1.03906,0 1.88672,0.84375 1.88672,1.88672 0,1.04297 -0.84766,1.88672 -1.88672,1.88672 -1.04297,0 -1.88672,-0.84375 -1.88672,-1.88672 z"
     fill="#ffffff"
     id="path4"
     style="stroke-width:0.0390625" />
</svg>
