<svg xmlns="http://www.w3.org/2000/svg" width="48" height="48" fill="none"><path d="M24 48c13.255 0 24-10.745 24-24S37.255 0 24 0 0 10.745 0 24s10.745 24 24 24z" fill="#08c"/><path d="M8.938 25.174c2.806-1.545 5.937-2.835 8.864-4.132l15.194-6.153c.993-.331 2.778-.655 2.953.817-.096 2.084-.49 4.155-.76 6.226-.686 4.555-1.48 9.095-2.253 13.635-.267 1.512-2.161 2.295-3.373 1.327l-8.725-5.93c-.942-.957-.069-2.332.773-3.016 2.399-2.365 4.944-4.374 7.218-6.86.613-1.481-1.199-.233-1.797.15-3.285 2.264-6.489 4.665-9.952 6.655-1.769.974-3.831.142-5.599-.402-1.585-.656-3.909-1.318-2.542-2.319h0z" fill="#fff"/></svg>
