<?xml version="1.0" encoding="UTF-8" standalone="no"?>
<svg
   width="32"
   height="32"
   fill="none"
   version="1.1"
   id="svg8"
   sodipodi:docname="youtube.svg"
   inkscape:version="1.2.2 (b0a8486541, 2022-12-01)"
   xmlns:inkscape="http://www.inkscape.org/namespaces/inkscape"
   xmlns:sodipodi="http://sodipodi.sourceforge.net/DTD/sodipodi-0.dtd"
   xmlns="http://www.w3.org/2000/svg"
   xmlns:svg="http://www.w3.org/2000/svg">
  <defs
     id="defs12" />
  <sodipodi:namedview
     id="namedview10"
     pagecolor="#ffffff"
     bordercolor="#000000"
     borderopacity="0.25"
     inkscape:showpageshadow="2"
     inkscape:pageopacity="0.0"
     inkscape:pagecheckerboard="0"
     inkscape:deskcolor="#d1d1d1"
     showgrid="false"
     inkscape:zoom="11.166667"
     inkscape:cx="24.044776"
     inkscape:cy="24"
     inkscape:window-width="1366"
     inkscape:window-height="715"
     inkscape:window-x="0"
     inkscape:window-y="29"
     inkscape:window-maximized="1"
     inkscape:current-layer="svg8" />
  <path
     d="M 0,16 C 0,7.1633333 7.1633333,0 16,0 24.836667,0 32,7.1633333 32,16 32,24.836667 24.836667,32 16,32 7.1633333,32 0,24.836667 0,16 Z"
     fill="#ff0000"
     id="path2"
     style="stroke-width:0.666667" />
  <g
     id="g1577"
     transform="matrix(0.78121948,0,0,0.78121948,-2.7488769,-3.0617553)">
    <path
       d="M 36.265,18.073 C 35.971,16.942 35.103,16.051 34.002,15.749 32.005,15.2 24,15.2 24,15.2 c 0,0 -8.005,0 -10.002,0.549 -1.102,0.302 -1.969,1.193 -2.264,2.324 -0.535,2.05 -0.535,6.327 -0.535,6.327 0,0 0,4.277 0.535,6.327 0.294,1.131 1.162,2.022 2.264,2.324 C 15.995,33.6 24,33.6 24,33.6 c 0,0 8.005,0 10.002,-0.549 1.101,-0.302 1.969,-1.193 2.263,-2.324 C 36.8,28.677 36.8,24.4 36.8,24.4 c 0,0 0,-4.277 -0.535,-6.327"
       fill="#ffffff"
       id="path4" />
    <path
       d="m 21.6,28.8 v -8 l 6.4,4 z"
       fill="#ff0000"
       id="path6" />
  </g>
</svg>
